<?xml version="1.0" standalone="no"?>
<!DOCTYPE svg PUBLIC "-//W3C//DTD SVG 20010904//EN"
 "http://www.w3.org/TR/2001/REC-SVG-20010904/DTD/svg10.dtd">
<svg version="1.0" xmlns="http://www.w3.org/2000/svg"
 width="411.000000pt" height="411.000000pt" viewBox="0 0 411.000000 411.000000"
 preserveAspectRatio="xMidYMid meet">
<metadata>
Created by potrace 1.14, written by Peter Selinger 2001-2017
</metadata>
<g transform="translate(0.000000,411.000000) scale(0.100000,-0.100000)"
fill="#000000" stroke="none">
<path d="M0 2055 l0 -2055 2055 0 2055 0 0 2055 0 2055 -2055 0 -2055 0 0
-2055z m2179 1594 c-8 -5 -9 -9 -4 -9 6 0 15 4 20 8 16 14 108 -17 101 -33 -3
-8 -1 -17 5 -20 5 -4 7 -11 4 -16 -4 -5 -1 -9 4 -9 14 0 14 17 1 25 -6 4 -7
11 -4 17 4 6 -4 19 -16 28 -23 17 -20 17 66 4 242 -39 502 -141 633 -248 67
-55 132 -133 176 -211 44 -78 265 -621 265 -650 0 -18 -9 -26 -37 -35 -54 -18
-67 -34 -21 -26 25 5 47 2 67 -9 34 -17 106 -122 158 -230 40 -82 39 -104 -9
-248 -28 -86 -30 -98 -23 -182 12 -141 9 -157 -40 -214 -16 -20 -17 -23 -3
-18 22 8 28 -11 28 -82 0 -69 -38 -153 -101 -224 -46 -53 -65 -61 -120 -52
l-41 7 24 25 c21 23 21 25 4 22 -11 -2 -46 -38 -77 -79 l-57 -75 -4 -98 c-2
-53 0 -97 5 -97 4 0 19 -25 33 -55 25 -57 32 -93 14 -65 -8 11 -9 8 -4 -12 9
-40 -9 -34 -30 8 -23 49 -33 36 -12 -16 18 -44 21 -74 7 -66 -5 3 -11 -3 -14
-14 -8 -30 -43 -25 -56 8 -10 26 -11 25 -5 -8 4 -26 3 -31 -5 -20 -8 11 -11
12 -11 2 0 -35 -18 5 -35 78 -10 44 -22 80 -27 80 -11 0 -11 -6 13 -95 19 -75
20 -80 3 -92 -47 -35 -127 -3 -145 57 -14 46 -32 48 -37 4 -2 -16 -9 -35 -15
-42 -9 -12 -12 -11 -18 5 -6 15 -8 15 -8 2 -2 -30 -69 -41 -90 -15 -13 15 -6
119 10 162 15 41 -25 64 -109 64 -47 0 -63 4 -78 21 -29 32 -51 41 -74 29 -11
-6 -20 -17 -20 -25 0 -8 -7 -15 -15 -15 -17 0 -20 -11 -6 -26 5 -5 11 -38 13
-73 4 -76 -10 -93 -58 -70 -26 13 -29 20 -32 66 -2 42 1 56 17 72 27 27 26 31
-4 31 -19 0 -25 -5 -25 -21 0 -12 -4 -17 -11 -13 -8 4 -9 -1 -4 -16 5 -15 0
-29 -16 -46 l-23 -24 -33 32 c-32 31 -32 32 -16 57 23 36 43 49 65 43 10 -2
18 0 18 6 0 13 -26 23 -44 16 -26 -10 -51 14 -64 60 -8 32 -20 50 -39 61 l-28
16 38 -5 c42 -5 51 10 11 20 -18 5 -44 -1 -78 -15 -89 -39 -117 -44 -226 -38
-174 10 -312 62 -368 137 -40 54 -75 78 -129 86 -52 8 -133 -3 -133 -18 0 -6
12 -8 30 -4 36 7 41 -9 5 -18 -15 -4 -25 -13 -25 -24 1 -16 1 -16 11 1 5 9 18
17 28 17 11 0 21 7 25 15 6 16 47 21 60 7 7 -7 11 -8 37 -11 5 0 8 -5 4 -10
-3 -5 0 -13 6 -17 8 -4 9 -3 5 4 -11 17 5 15 26 -4 17 -16 17 -18 0 -30 -14
-12 -14 -13 -1 -8 9 3 23 -2 32 -10 8 -8 18 -12 22 -8 5 4 5 -1 2 -10 -3 -10
-2 -20 3 -23 6 -4 10 -1 10 5 0 6 5 8 10 5 8 -5 7 -12 -2 -23 -10 -14 -10 -15
2 -4 17 15 34 16 25 2 -4 -6 -3 -10 2 -9 36 6 30 -7 -17 -37 -48 -30 -61 -34
-104 -31 -26 2 -52 11 -57 18 -7 11 -9 11 -9 -3 0 -9 6 -19 13 -22 6 -2 -7 -3
-31 0 -91 9 -155 59 -240 188 -36 56 -93 135 -126 176 -117 148 -264 492 -302
712 -18 101 -15 266 6 325 10 29 14 31 36 22 32 -11 67 -12 60 0 -3 5 -22 12
-42 15 -29 6 -38 14 -51 44 -17 41 -15 58 24 237 31 143 71 228 174 365 171
229 363 382 579 461 145 52 327 89 270 54 -5 -3 -10 -19 -10 -35 0 -22 -7 -33
-29 -45 -16 -8 -39 -28 -51 -45 -13 -19 -30 -30 -45 -30 -16 0 -29 -11 -44
-35 -11 -19 -17 -35 -13 -35 4 0 15 14 24 30 9 17 25 30 35 30 10 0 34 16 52
35 18 20 36 34 39 31 7 -8 42 40 42 58 0 28 23 67 37 62 7 -3 13 -2 13 3 0 5
35 13 78 18 100 12 289 14 271 2z m-1092 -341 c-91 -91 -155 -166 -204 -238
-90 -135 -109 -172 -136 -276 l-23 -85 -194 333 c-107 183 -203 348 -213 366
l-19 32 461 0 460 0 -132 -132z m2706 83 c-15 -27 -109 -189 -208 -360 -99
-170 -182 -310 -185 -311 -3 0 -36 78 -74 173 -120 298 -173 390 -284 495
l-57 52 419 0 418 0 -29 -49z m-1584 -2422 c8 -24 19 -47 25 -51 7 -5 5 -16
-7 -37 -23 -39 -22 -48 13 -79 l29 -27 -102 -177 c-56 -98 -104 -177 -107
-177 -8 0 -353 599 -348 605 3 2 45 -2 93 -11 113 -19 204 -18 285 4 79 22 99
14 119 -50z"/>
<path d="M2040 3635 c-14 -8 -37 -14 -51 -15 -14 0 -34 -10 -45 -22 -19 -23
-19 -23 2 -5 11 9 31 17 45 17 23 1 106 39 84 39 -5 0 -21 -6 -35 -14z"/>
<path d="M2398 3603 c7 -3 16 -2 19 1 4 3 -2 6 -13 5 -11 0 -14 -3 -6 -6z"/>
<path d="M1806 3572 c-2 -4 18 -7 45 -7 30 0 50 -4 53 -12 3 -7 11 -13 18 -12
10 0 10 2 1 6 -7 2 -13 10 -13 16 0 13 -96 21 -104 9z"/>
<path d="M1615 3560 c-3 -6 1 -7 9 -4 18 7 21 14 7 14 -6 0 -13 -4 -16 -10z"/>
<path d="M2253 3564 c-8 -4 -10 -16 -6 -36 4 -20 1 -33 -8 -40 -12 -8 -11 -9
1 -5 9 2 15 16 16 37 0 23 6 36 20 41 12 5 13 8 4 8 -8 -1 -20 -3 -27 -5z"/>
<path d="M1503 3520 c-24 -10 -43 -21 -43 -24 0 -6 77 27 87 37 10 11 1 8 -44
-13z"/>
<path d="M1329 3413 c-13 -16 -12 -17 4 -4 9 7 17 15 17 17 0 8 -8 3 -21 -13z"/>
<path d="M1535 3328 c-2 -7 -5 -24 -7 -38 -2 -16 -10 -26 -23 -28 -31 -6 -38
-18 -10 -17 35 2 48 18 49 59 1 38 -2 45 -9 24z"/>
<path d="M1290 3310 c-9 -6 -10 -10 -3 -10 6 0 15 5 18 10 8 12 4 12 -15 0z"/>
<path d="M1124 3238 l-19 -21 28 18 c28 18 33 25 19 25 -5 0 -17 -10 -28 -22z"/>
<path d="M1660 3240 c0 -5 5 -10 11 -10 5 0 7 5 4 10 -3 6 -8 10 -11 10 -2 0
-4 -4 -4 -10z"/>
<path d="M1465 3204 c4 -22 0 -35 -15 -49 -25 -23 -26 -47 -2 -68 21 -19 42
-22 42 -6 0 5 -5 7 -10 4 -14 -9 -40 13 -40 33 0 9 9 26 21 38 18 19 20 27 10
51 l-11 28 5 -31z"/>
<path d="M1037 3142 c-19 -20 -23 -37 -7 -27 10 6 33 45 27 45 -2 0 -11 -8
-20 -18z"/>
<path d="M967 3050 c-10 -16 -16 -30 -14 -30 2 0 13 14 25 30 13 17 19 30 14
30 -4 0 -16 -13 -25 -30z"/>
<path d="M1461 3024 c0 -11 3 -14 6 -6 3 7 2 16 -1 19 -3 4 -6 -2 -5 -13z"/>
<path d="M1493 2996 c5 -12 1 -26 -9 -38 -10 -10 -15 -20 -13 -22 2 -2 14 8
25 23 19 24 20 28 6 41 -14 13 -15 12 -9 -4z"/>
<path d="M1654 2954 c-4 -14 -3 -29 2 -34 5 -5 9 6 10 26 1 41 -3 43 -12 8z"/>
<path d="M956 2953 c-6 -14 -5 -15 5 -6 7 7 10 15 7 18 -3 3 -9 -2 -12 -12z"/>
<path d="M1065 2959 c-4 -6 -5 -12 -2 -15 2 -3 7 2 10 11 7 17 1 20 -8 4z"/>
<path d="M885 2934 c-9 -14 -15 -27 -13 -30 2 -2 12 10 22 26 21 37 15 40 -9
4z"/>
<path d="M1461 2910 c0 -8 6 -35 13 -60 8 -25 15 -38 15 -30 0 8 -6 35 -13 60
-8 25 -15 38 -15 30z"/>
<path d="M948 2858 c-8 -5 1 -8 24 -8 26 0 38 -5 41 -17 4 -14 5 -14 6 3 1 17
-6 23 -29 26 -16 3 -35 1 -42 -4z"/>
<path d="M898 2843 c7 -3 16 -2 19 1 4 3 -2 6 -13 5 -11 0 -14 -3 -6 -6z"/>
<path d="M1135 2810 c39 -26 55 -26 27 0 -12 11 -29 20 -39 20 -13 0 -10 -5
12 -20z"/>
<path d="M811 2789 c-6 -18 -10 -44 -10 -58 1 -21 3 -20 8 9 4 19 11 45 15 58
4 12 5 22 3 22 -3 0 -10 -14 -16 -31z"/>
<path d="M1038 2813 c7 -3 16 -2 19 1 4 3 -2 6 -13 5 -11 0 -14 -3 -6 -6z"/>
<path d="M1481 2774 c0 -11 3 -14 6 -6 3 7 2 16 -1 19 -3 4 -6 -2 -5 -13z"/>
<path d="M1251 2747 c2 -1 14 -11 27 -21 12 -11 22 -16 22 -13 0 10 -31 37
-42 37 -6 0 -9 -1 -7 -3z"/>
<path d="M831 2674 c0 -11 3 -14 6 -6 3 7 2 16 -1 19 -3 4 -6 -2 -5 -13z"/>
<path d="M1515 2661 c-3 -5 -2 -12 3 -15 5 -3 9 1 9 9 0 17 -3 19 -12 6z"/>
<path d="M865 2649 c-4 -6 -5 -12 -2 -15 2 -3 7 2 10 11 7 17 1 20 -8 4z"/>
<path d="M911 2644 c0 -11 3 -14 6 -6 3 7 2 16 -1 19 -3 4 -6 -2 -5 -13z"/>
<path d="M1838 2613 c7 -3 16 -2 19 1 4 3 -2 6 -13 5 -11 0 -14 -3 -6 -6z"/>
<path d="M781 2594 c0 -11 3 -14 6 -6 3 7 2 16 -1 19 -3 4 -6 -2 -5 -13z"/>
<path d="M3286 2572 c-3 -5 1 -9 9 -9 8 0 12 4 9 9 -3 4 -7 8 -9 8 -2 0 -6 -4
-9 -8z"/>
<path d="M842 2540 c0 -19 2 -27 5 -17 2 9 2 25 0 35 -3 9 -5 1 -5 -18z"/>
<path d="M1868 2563 c7 -3 16 -2 19 1 4 3 -2 6 -13 5 -11 0 -14 -3 -6 -6z"/>
<path d="M2150 2545 c-10 -13 -11 -18 -1 -28 10 -9 11 -8 5 8 -7 17 -6 18 8 7
10 -8 19 -9 22 -3 4 5 -2 12 -11 14 -10 3 -3 5 16 6 29 1 33 -2 28 -20 -4 -16
-3 -19 5 -11 6 6 8 18 5 26 -8 21 -61 21 -77 1z"/>
<path d="M1748 2533 c7 -3 16 -2 19 1 4 3 -2 6 -13 5 -11 0 -14 -3 -6 -6z"/>
<path d="M1778 2503 c7 -3 16 -2 19 1 4 3 -2 6 -13 5 -11 0 -14 -3 -6 -6z"/>
<path d="M1978 2503 c7 -3 16 -2 19 1 4 3 -2 6 -13 5 -11 0 -14 -3 -6 -6z"/>
<path d="M871 2484 c0 -11 3 -14 6 -6 3 7 2 16 -1 19 -3 4 -6 -2 -5 -13z"/>
<path d="M1377 2467 c-12 -13 -31 -36 -42 -51 l-21 -29 -65 12 c-36 6 -77 11
-90 10 -13 -1 8 -7 48 -13 40 -7 80 -20 91 -29 10 -9 31 -43 46 -76 48 -99 98
-101 135 -5 26 70 46 94 77 94 13 0 25 4 28 9 3 4 -6 6 -19 3 -20 -3 -35 6
-75 47 -55 57 -80 63 -113 28z m73 -93 c0 -2 -7 -4 -15 -4 -8 0 -15 4 -15 10
0 5 7 7 15 4 8 -4 15 -8 15 -10z"/>
<path d="M1647 2479 c7 -7 15 -10 18 -7 3 3 -2 9 -12 12 -14 6 -15 5 -6 -5z"/>
<path d="M1878 2463 c6 -2 18 -2 25 0 6 3 1 5 -13 5 -14 0 -19 -2 -12 -5z"/>
<path d="M1783 2453 c9 -2 23 -2 30 0 6 3 -1 5 -18 5 -16 0 -22 -2 -12 -5z"/>
<path d="M3193 2453 c15 -2 39 -2 55 0 15 2 2 4 -28 4 -30 0 -43 -2 -27 -4z"/>
<path d="M850 2420 c0 -5 5 -10 10 -10 6 0 10 5 10 10 0 6 -4 10 -10 10 -5 0
-10 -4 -10 -10z"/>
<path d="M965 2423 c22 -3 44 -8 50 -13 5 -4 19 -3 30 1 18 9 18 9 -2 5 -13
-2 -26 0 -29 5 -3 5 -24 8 -47 7 l-42 -1 40 -4z"/>
<path d="M2554 2408 c-19 -21 -19 -21 6 -8 14 8 39 13 55 11 38 -4 30 4 -11
12 -25 5 -36 1 -50 -15z"/>
<path d="M2683 2423 c15 -2 39 -2 55 0 15 2 2 4 -28 4 -30 0 -43 -2 -27 -4z"/>
<path d="M2818 2423 c7 -3 16 -2 19 1 4 3 -2 6 -13 5 -11 0 -14 -3 -6 -6z"/>
<path d="M1616 2392 c-3 -5 8 -6 25 -4 16 2 29 6 29 8 0 8 -49 4 -54 -4z"/>
<path d="M1693 2383 c9 -2 25 -2 35 0 9 3 1 5 -18 5 -19 0 -27 -2 -17 -5z"/>
<path d="M1988 2383 c6 -2 18 -2 25 0 6 3 1 5 -13 5 -14 0 -19 -2 -12 -5z"/>
<path d="M2453 2383 c15 -2 39 -2 55 0 15 2 2 4 -28 4 -30 0 -43 -2 -27 -4z"/>
<path d="M1638 2373 c7 -3 16 -2 19 1 4 3 -2 6 -13 5 -11 0 -14 -3 -6 -6z"/>
<path d="M776 2353 c-6 -14 -5 -15 5 -6 7 7 10 15 7 18 -3 3 -9 -2 -12 -12z"/>
<path d="M940 2348 c-12 -22 -12 -22 6 -6 10 10 15 20 12 24 -4 3 -12 -5 -18
-18z"/>
<path d="M1565 2359 c-12 -6 -27 -20 -34 -32 l-14 -22 24 21 c13 12 33 26 44
32 25 14 8 14 -20 1z"/>
<path d="M2028 2363 c7 -3 16 -2 19 1 4 3 -2 6 -13 5 -11 0 -14 -3 -6 -6z"/>
<path d="M2238 2363 c12 -2 30 -2 40 0 9 3 -1 5 -23 4 -22 0 -30 -2 -17 -4z"/>
<path d="M742 2320 c0 -14 2 -19 5 -12 2 6 2 18 0 25 -3 6 -5 1 -5 -13z"/>
<path d="M2971 2264 c0 -11 3 -14 6 -6 3 7 2 16 -1 19 -3 4 -6 -2 -5 -13z"/>
<path d="M1496 2253 c-6 -14 -5 -15 5 -6 7 7 10 15 7 18 -3 3 -9 -2 -12 -12z"/>
<path d="M1300 2256 c0 -11 30 -66 36 -66 2 0 -3 15 -12 33 -19 36 -24 44 -24
33z"/>
<path d="M1260 2247 c0 -26 43 -76 65 -76 6 0 2 4 -8 10 -10 6 -27 25 -38 42
-10 18 -19 28 -19 24z"/>
<path d="M812 2195 c0 -16 2 -22 5 -12 2 9 2 23 0 30 -3 6 -5 -1 -5 -18z"/>
<path d="M1442 2180 c-18 -17 -38 -30 -45 -30 -6 0 -20 -12 -30 -25 -14 -20
-15 -25 -4 -25 10 0 13 -8 10 -24 -3 -16 1 -25 13 -30 14 -5 15 -4 4 9 -7 8
-10 21 -7 30 4 8 2 17 -4 20 -14 9 -2 23 41 45 22 11 44 29 50 40 14 26 11 25
-28 -10z"/>
<path d="M3076 2201 c-3 -4 6 -6 19 -3 14 2 25 6 25 8 0 8 -39 4 -44 -5z"/>
<path d="M772 2150 c0 -14 2 -19 5 -12 2 6 2 18 0 25 -3 6 -5 1 -5 -13z"/>
<path d="M882 2150 c0 -14 2 -19 5 -12 2 6 2 18 0 25 -3 6 -5 1 -5 -13z"/>
<path d="M1270 2156 c0 -2 7 -7 16 -10 8 -3 12 -2 9 4 -6 10 -25 14 -25 6z"/>
<path d="M1868 2153 c7 -3 16 -2 19 1 4 3 -2 6 -13 5 -11 0 -14 -3 -6 -6z"/>
<path d="M1720 2120 c0 -5 5 -10 10 -10 6 0 10 5 10 10 0 6 -4 10 -10 10 -5 0
-10 -4 -10 -10z"/>
<path d="M3426 2094 c4 -18 -82 -37 -176 -38 -47 -1 -95 -7 -108 -14 -12 -7
-33 -35 -47 -61 -13 -27 -40 -62 -60 -78 l-36 -30 21 -48 c11 -26 32 -57 47
-68 15 -12 54 -45 87 -74 75 -65 128 -84 242 -85 74 -1 89 2 100 17 8 10 14
26 14 34 -1 9 -7 3 -15 -14 l-13 -30 -1 41 c-1 40 18 72 36 61 4 -3 9 8 10 24
1 19 -5 33 -19 43 -19 14 -19 16 -4 37 12 18 16 47 16 120 0 99 6 133 20 124
5 -3 12 0 16 6 4 8 3 9 -4 5 -7 -4 -12 -2 -12 4 0 17 31 24 41 9 7 -11 9 -10
9 5 0 17 -6 18 -79 12 -44 -3 -81 -3 -83 1 -3 5 -4 3 -2 -3z m-9 -70 c-3 -3
-12 -4 -19 -1 -8 3 -5 6 6 6 11 1 17 -2 13 -5z m-137 -58 c0 -3 -4 -8 -10 -11
-5 -3 -10 -1 -10 4 0 6 5 11 10 11 6 0 10 -2 10 -4z m13 -73 c-7 -2 -19 -2
-25 0 -7 3 -2 5 12 5 14 0 19 -2 13 -5z m-23 -43 c13 -8 13 -10 -2 -10 -9 0
-20 5 -23 10 -8 13 5 13 25 0z m-40 -21 c0 -4 -7 -6 -15 -3 -8 4 -15 10 -15
15 0 4 7 6 15 3 8 -4 15 -10 15 -15z m-116 -4 c3 -8 1 -15 -4 -15 -6 0 -10 7
-10 15 0 8 2 15 4 15 2 0 6 -7 10 -15z m181 -25 c3 -5 1 -10 -4 -10 -6 0 -11
5 -11 10 0 6 2 10 4 10 3 0 8 -4 11 -10z m-70 -100 c3 -5 1 -10 -4 -10 -6 0
-11 5 -11 10 0 6 2 10 4 10 3 0 8 -4 11 -10z m55 0 c0 -5 -2 -10 -4 -10 -3 0
-8 5 -11 10 -3 6 -1 10 4 10 6 0 11 -4 11 -10z m70 -10 c0 -5 -4 -10 -10 -10
-5 0 -10 5 -10 10 0 6 5 10 10 10 6 0 10 -4 10 -10z"/>
<path d="M1736 2092 c-2 -4 -1 -14 5 -22 7 -12 9 -10 9 8 0 23 -5 28 -14 14z"/>
<path d="M3365 2090 c-3 -6 1 -7 9 -4 18 7 21 14 7 14 -6 0 -13 -4 -16 -10z"/>
<path d="M1900 2080 c-9 -6 -10 -10 -3 -10 6 0 15 5 18 10 8 12 4 12 -15 0z"/>
<path d="M3293 2073 c9 -2 25 -2 35 0 9 3 1 5 -18 5 -19 0 -27 -2 -17 -5z"/>
<path d="M801 2044 c0 -11 3 -14 6 -6 3 7 2 16 -1 19 -3 4 -6 -2 -5 -13z"/>
<path d="M1900 2050 c-8 -5 -10 -10 -5 -10 6 0 17 5 25 10 8 5 11 10 5 10 -5
0 -17 -5 -25 -10z"/>
<path d="M1757 1889 c6 -162 -6 -277 -27 -264 -5 3 -12 0 -16 -6 -4 -8 -3 -9
4 -5 18 11 14 -3 -13 -49 -52 -89 -117 -99 -237 -37 -5 2 -8 0 -8 -5 0 -13 68
-49 106 -57 76 -16 160 59 195 175 20 66 21 86 16 232 -3 88 -11 165 -16 170
-7 7 -8 -42 -4 -154z"/>
<path d="M1925 2020 c-16 -11 -25 -20 -20 -20 10 0 64 39 55 40 -3 0 -18 -9
-35 -20z"/>
<path d="M2418 2033 c7 -3 16 -2 19 1 4 3 -2 6 -13 5 -11 0 -14 -3 -6 -6z"/>
<path d="M2395 2009 c-93 -15 -200 -28 -236 -28 -58 -1 -73 -5 -115 -33 -27
-19 -62 -54 -79 -82 -28 -46 -30 -56 -30 -150 0 -92 3 -106 30 -161 41 -81 95
-110 204 -109 84 0 117 12 221 74 66 39 153 70 199 70 13 0 33 -7 43 -16 14
-14 20 -14 33 -4 26 21 18 50 -15 57 -16 3 -30 9 -30 13 0 5 18 23 40 40 22
17 40 37 40 44 0 7 11 29 23 48 24 34 41 89 27 85 -4 -1 -21 8 -38 20 -39 29
-50 74 -26 111 10 15 17 32 16 37 -1 6 5 1 13 -9 8 -11 15 -15 15 -10 0 42
-93 43 -335 3z m-271 -161 c-3 -4 -9 -8 -15 -8 -5 0 -9 4 -9 8 0 5 7 9 15 9 8
0 12 -4 9 -9z m497 -19 c-5 -13 -10 -19 -10 -12 -1 15 10 45 15 40 3 -2 0 -15
-5 -28z m-381 7 c0 -3 -4 -8 -10 -11 -5 -3 -10 -1 -10 4 0 6 5 11 10 11 6 0
10 -2 10 -4z m-43 -52 c-3 -3 -12 -4 -19 -1 -8 3 -5 6 6 6 11 1 17 -2 13 -5z
m-77 -24 c-20 -13 -33 -13 -25 0 3 6 14 10 23 10 15 0 15 -2 2 -10z m40 -4 c0
-2 -7 -7 -16 -10 -8 -3 -12 -2 -9 4 6 10 25 14 25 6z m480 0 c0 -3 -4 -8 -10
-11 -5 -3 -10 -1 -10 4 0 6 5 11 10 11 6 0 10 -2 10 -4z m-195 -106 c-3 -5
-11 -10 -16 -10 -6 0 -7 5 -4 10 3 6 11 10 16 10 6 0 7 -4 4 -10z m35 -30 c-8
-5 -22 -10 -30 -10 -13 0 -13 1 0 10 8 5 22 10 30 10 13 0 13 -1 0 -10z m-180
-25 c-7 -8 -18 -15 -24 -15 -6 0 -2 7 8 15 25 19 32 19 16 0z m105 -5 c-3 -5
-11 -10 -16 -10 -6 0 -7 5 -4 10 3 6 11 10 16 10 6 0 7 -4 4 -10z"/>
<path d="M931 2014 c0 -11 3 -14 6 -6 3 7 2 16 -1 19 -3 4 -6 -2 -5 -13z"/>
<path d="M2333 2023 c9 -2 23 -2 30 0 6 3 -1 5 -18 5 -16 0 -22 -2 -12 -5z"/>
<path d="M3533 2015 c-3 -9 -3 -18 -1 -21 3 -3 8 4 11 16 6 23 -1 27 -10 5z"/>
<path d="M762 2000 c0 -14 2 -19 5 -12 2 6 2 18 0 25 -3 6 -5 1 -5 -13z"/>
<path d="M2273 2013 c9 -2 23 -2 30 0 6 3 -1 5 -18 5 -16 0 -22 -2 -12 -5z"/>
<path d="M2909 2002 c-51 -45 -60 -54 -56 -58 3 -3 16 6 29 19 13 13 30 26 38
29 7 2 11 8 9 14 -2 6 -11 4 -20 -4z"/>
<path d="M2970 1992 c0 -4 9 -13 20 -19 16 -11 18 -10 14 1 -6 15 -34 30 -34
18z"/>
<path d="M2692 1955 c0 -16 2 -22 5 -12 2 9 2 23 0 30 -3 6 -5 -1 -5 -18z"/>
<path d="M1905 1950 c-3 -5 -1 -10 4 -10 6 0 11 5 11 10 0 6 -2 10 -4 10 -3 0
-8 -4 -11 -10z"/>
<path d="M2909 1943 c-13 -16 -12 -17 4 -4 16 13 21 21 13 21 -2 0 -10 -8 -17
-17z"/>
<path d="M1438 1938 c8 -8 8 -15 1 -24 -7 -9 -7 -18 1 -31 10 -15 11 -15 6 -1
-2 9 2 22 10 28 20 17 18 27 -7 33 -16 4 -19 3 -11 -5z"/>
<path d="M1637 1931 c-4 -17 -3 -21 5 -13 5 5 8 16 6 23 -3 8 -7 3 -11 -10z"/>
<path d="M2856 1903 c-6 -14 -5 -15 5 -6 7 7 10 15 7 18 -3 3 -9 -2 -12 -12z"/>
<path d="M2700 1900 c0 -5 5 -10 11 -10 5 0 7 5 4 10 -3 6 -8 10 -11 10 -2 0
-4 -4 -4 -10z"/>
<path d="M2901 1894 c0 -11 3 -14 6 -6 3 7 2 16 -1 19 -3 4 -6 -2 -5 -13z"/>
<path d="M2823 1885 c-3 -9 -3 -18 -1 -21 3 -3 8 4 11 16 6 23 -1 27 -10 5z"/>
<path d="M2875 1879 c-4 -6 -5 -12 -2 -15 2 -3 7 2 10 11 7 17 1 20 -8 4z"/>
<path d="M1452 1840 c0 -14 2 -19 5 -12 2 6 2 18 0 25 -3 6 -5 1 -5 -13z"/>
<path d="M2776 1845 c-3 -9 -6 -22 -5 -28 0 -7 5 -1 10 12 5 13 8 26 5 28 -2
2 -6 -3 -10 -12z"/>
<path d="M891 1824 c0 -11 3 -14 6 -6 3 7 2 16 -1 19 -3 4 -6 -2 -5 -13z"/>
<path d="M2792 1810 c0 -14 2 -19 5 -12 2 6 2 18 0 25 -3 6 -5 1 -5 -13z"/>
<path d="M2857 1810 c4 -14 7 -50 6 -80 0 -35 3 -48 8 -35 4 11 8 35 8 53 1
22 5 31 13 26 7 -4 8 -3 4 5 -4 6 -11 9 -16 6 -4 -3 -13 7 -19 22 -9 23 -10
23 -4 3z"/>
<path d="M1685 1799 c-4 -6 -5 -12 -2 -15 2 -3 7 2 10 11 7 17 1 20 -8 4z"/>
<path d="M1841 1794 c0 -11 3 -14 6 -6 3 7 2 16 -1 19 -3 4 -6 -2 -5 -13z"/>
<path d="M1871 1794 c0 -11 3 -14 6 -6 3 7 2 16 -1 19 -3 4 -6 -2 -5 -13z"/>
<path d="M1495 1766 c10 -14 19 -26 22 -26 7 0 -17 39 -28 46 -6 3 -3 -5 6
-20z"/>
<path d="M1731 1774 c0 -11 3 -14 6 -6 3 7 2 16 -1 19 -3 4 -6 -2 -5 -13z"/>
<path d="M1813 1735 c0 -22 2 -30 4 -17 2 12 2 30 0 40 -3 9 -5 -1 -4 -23z"/>
<path d="M1863 1700 c0 -41 2 -58 4 -37 2 20 2 54 0 75 -2 20 -4 3 -4 -38z"/>
<path d="M1074 1725 c-3 -8 -4 -20 -1 -27 3 -7 6 -3 6 10 1 13 7 22 16 22 9 0
20 -10 25 -22 5 -14 9 -17 9 -7 2 33 -44 53 -55 24z"/>
<path d="M1833 1690 c0 -30 2 -43 4 -27 2 15 2 39 0 55 -2 15 -4 2 -4 -28z"/>
<path d="M1640 1705 c-8 -9 -8 -15 -2 -15 12 0 26 19 19 26 -2 2 -10 -2 -17
-11z"/>
<path d="M1705 1669 c-4 -6 -5 -12 -2 -15 2 -3 7 2 10 11 7 17 1 20 -8 4z"/>
<path d="M2964 1655 c-33 -47 -91 -193 -109 -271 l-16 -71 30 -46 c18 -25 42
-48 56 -51 13 -3 29 -15 35 -26 14 -26 26 -25 66 5 35 27 63 32 81 14 7 -7 19
-9 27 -6 21 8 22 94 2 163 -8 27 -17 69 -20 94 -4 25 -20 65 -36 90 -16 25
-32 64 -36 88 -8 49 -24 57 -24 12 0 -17 -8 -45 -17 -63 -15 -26 -18 -54 -16
-157 2 -120 1 -124 -14 -95 -37 69 -36 165 3 272 9 24 14 51 12 60 -3 14 -7
12 -24 -12z m73 -207 c-3 -8 -6 -5 -6 6 -1 11 2 17 5 13 3 -3 4 -12 1 -19z
m13 -38 c0 -5 -2 -10 -4 -10 -3 0 -8 5 -11 10 -3 6 -1 10 4 10 6 0 11 -4 11
-10z m-120 -76 c0 -8 -4 -12 -10 -9 -5 3 -10 10 -10 16 0 5 5 9 10 9 6 0 10
-7 10 -16z"/>
<path d="M2660 1660 c-9 -6 -10 -10 -3 -10 6 0 15 5 18 10 8 12 4 12 -15 0z"/>
<path d="M2745 1640 c-3 -6 1 -7 9 -4 18 7 21 14 7 14 -6 0 -13 -4 -16 -10z"/>
<path d="M2795 1620 c10 -11 20 -20 23 -20 3 0 -3 9 -13 20 -10 11 -20 20 -23
20 -3 0 3 -9 13 -20z"/>
<path d="M1645 1620 c-3 -6 1 -7 9 -4 18 7 21 14 7 14 -6 0 -13 -4 -16 -10z"/>
<path d="M1871 1610 c0 -8 6 -28 14 -45 17 -39 18 -21 0 25 -7 19 -14 28 -14
20z"/>
<path d="M1655 1590 c-3 -5 -1 -10 4 -10 6 0 11 5 11 10 0 6 -2 10 -4 10 -3 0
-8 -4 -11 -10z"/>
<path d="M1685 1589 c-4 -6 -5 -12 -2 -15 2 -3 7 2 10 11 7 17 1 20 -8 4z"/>
<path d="M946 1567 c3 -10 9 -15 12 -12 3 3 0 11 -7 18 -10 9 -11 8 -5 -6z"/>
<path d="M1605 1570 c-3 -6 1 -7 9 -4 18 7 21 14 7 14 -6 0 -13 -4 -16 -10z"/>
<path d="M1420 1550 c0 -5 5 -10 10 -10 6 0 10 5 10 10 0 6 -4 10 -10 10 -5 0
-10 -4 -10 -10z"/>
<path d="M1605 1540 c-3 -6 1 -7 9 -4 18 7 21 14 7 14 -6 0 -13 -4 -16 -10z"/>
<path d="M2746 1523 c-6 -14 -5 -15 5 -6 7 7 10 15 7 18 -3 3 -9 -2 -12 -12z"/>
<path d="M1911 1510 c14 -31 19 -36 19 -24 0 6 -7 19 -16 30 -14 18 -14 18 -3
-6z"/>
<path d="M2433 1515 c0 -7 6 -11 14 -8 7 3 13 6 13 8 0 2 -6 5 -13 8 -8 3 -14
-1 -14 -8z"/>
<path d="M2790 1522 c0 -7 -5 -11 -11 -9 -6 1 -14 -5 -16 -13 -4 -13 -3 -13 6
0 9 13 11 12 11 -5 1 -18 2 -17 11 4 5 13 7 26 4 29 -3 3 -5 0 -5 -6z"/>
<path d="M979 1502 c6 -12 16 -24 22 -28 8 -4 8 -1 0 14 -6 12 -16 24 -22 28
-8 4 -8 1 0 -14z"/>
<path d="M1570 1510 c34 -11 60 -11 35 0 -11 5 -29 8 -40 8 -16 0 -15 -2 5 -8z"/>
<path d="M3375 1500 c-3 -6 1 -7 9 -4 18 7 21 14 7 14 -6 0 -13 -4 -16 -10z"/>
<path d="M1886 1487 c3 -10 9 -15 12 -12 3 3 0 11 -7 18 -10 9 -11 8 -5 -6z"/>
<path d="M3176 1475 c2 -11 4 -24 4 -30 0 -5 5 -3 10 5 7 10 8 0 5 -35 l-5
-50 14 45 c15 43 10 59 -16 60 -3 0 -8 6 -11 13 -2 6 -3 3 -1 -8z"/>
<path d="M2380 1470 c-19 -11 -31 -19 -27 -20 11 0 67 29 67 35 0 7 -1 7 -40
-15z"/>
<path d="M1940 1466 c0 -3 9 -10 20 -16 11 -6 20 -8 20 -6 0 3 -9 10 -20 16
-11 6 -20 8 -20 6z"/>
<path d="M1510 1450 c8 -5 20 -10 25 -10 6 0 3 5 -5 10 -8 5 -19 10 -25 10 -5
0 -3 -5 5 -10z"/>
<path d="M1348 1443 c7 -3 16 -2 19 1 4 3 -2 6 -13 5 -11 0 -14 -3 -6 -6z"/>
<path d="M2308 1443 c6 -2 18 -2 25 0 6 3 1 5 -13 5 -14 0 -19 -2 -12 -5z"/>
<path d="M3511 1434 c0 -11 3 -14 6 -6 3 7 2 16 -1 19 -3 4 -6 -2 -5 -13z"/>
<path d="M1897 1429 c7 -7 15 -10 18 -7 3 3 -2 9 -12 12 -14 6 -15 5 -6 -5z"/>
<path d="M2138 1423 c12 -2 32 -2 45 0 12 2 2 4 -23 4 -25 0 -35 -2 -22 -4z"/>
<path d="M1837 1409 c7 -7 15 -10 18 -7 3 3 -2 9 -12 12 -14 6 -15 5 -6 -5z"/>
<path d="M2772 1400 c0 -14 2 -19 5 -12 2 6 2 18 0 25 -3 6 -5 1 -5 -13z"/>
<path d="M2553 1385 c-8 -23 0 -24 20 -3 14 15 15 18 2 18 -9 0 -18 -7 -22
-15z"/>
<path d="M2590 1379 c-12 -9 -11 -10 5 -5 l20 6 -20 -16 c-14 -12 -15 -15 -4
-11 9 3 22 0 28 -6 13 -13 15 -31 3 -23 -4 2 -14 1 -21 -3 -9 -6 -4 -8 13 -8
31 0 35 24 9 56 -14 16 -21 18 -33 10z"/>
<path d="M1828 1368 c5 -5 16 -8 23 -6 8 3 3 7 -10 11 -17 4 -21 3 -13 -5z"/>
<path d="M1090 1356 c0 -2 8 -10 18 -17 15 -13 16 -12 3 4 -13 16 -21 21 -21
13z"/>
<path d="M1458 1353 c7 -3 16 -2 19 1 4 3 -2 6 -13 5 -11 0 -14 -3 -6 -6z"/>
<path d="M1507 1319 c7 -7 15 -10 18 -7 3 3 -2 9 -12 12 -14 6 -15 5 -6 -5z"/>
<path d="M1458 1313 c7 -3 16 -2 19 1 4 3 -2 6 -13 5 -11 0 -14 -3 -6 -6z"/>
<path d="M1348 1293 c12 -2 32 -2 45 0 12 2 2 4 -23 4 -25 0 -35 -2 -22 -4z"/>
<path d="M1470 1270 c8 -5 20 -10 25 -10 6 0 3 5 -5 10 -8 5 -19 10 -25 10 -5
0 -3 -5 5 -10z"/>
<path d="M2780 1266 c0 -2 8 -10 18 -17 15 -13 16 -12 3 4 -13 16 -21 21 -21
13z"/>
<path d="M1160 1255 c0 -6 16 -28 60 -82 6 -7 10 -19 10 -28 0 -8 5 -15 10
-15 6 0 10 -8 11 -17 0 -10 3 -13 5 -7 5 12 -7 36 -48 101 -26 40 -48 62 -48
48z"/>
<path d="M1240 1230 c0 -5 5 -10 10 -10 6 0 10 5 10 10 0 6 -4 10 -10 10 -5 0
-10 -4 -10 -10z"/>
<path d="M3328 1233 c7 -3 16 -2 19 1 4 3 -2 6 -13 5 -11 0 -14 -3 -6 -6z"/>
<path d="M1388 1203 c7 -3 16 -2 19 1 4 3 -2 6 -13 5 -11 0 -14 -3 -6 -6z"/>
<path d="M2288 1203 c7 -3 16 -2 19 1 4 3 -2 6 -13 5 -11 0 -14 -3 -6 -6z"/>
<path d="M1391 1174 c0 -11 3 -14 6 -6 3 7 2 16 -1 19 -3 4 -6 -2 -5 -13z"/>
<path d="M1570 1176 c0 -2 8 -10 18 -17 15 -13 16 -12 3 4 -13 16 -21 21 -21
13z"/>
<path d="M2978 1153 c7 -3 16 -2 19 1 4 3 -2 6 -13 5 -11 0 -14 -3 -6 -6z"/>
<path d="M1485 1134 c-12 -9 -34 -14 -57 -12 -47 4 -36 -7 14 -15 27 -4 38 -2
42 9 3 9 10 12 16 9 5 -3 10 1 10 9 0 19 0 19 -25 0z"/>
<path d="M1423 1133 c9 -2 23 -2 30 0 6 3 -1 5 -18 5 -16 0 -22 -2 -12 -5z"/>
<path d="M3043 1123 c-10 -10 -14 -15 -9 -10 15 11 28 8 20 -5 -4 -7 -3 -8 5
-4 6 4 9 11 6 16 -3 4 1 11 7 13 8 4 9 6 2 6 -7 1 -20 -7 -31 -16z"/>
<path d="M3100 1130 c-12 -7 -10 -9 7 -7 12 0 19 5 17 9 -6 10 -6 10 -24 -2z"/>
<path d="M1330 1119 c0 -5 5 -7 10 -4 6 3 10 8 10 11 0 2 -4 4 -10 4 -5 0 -10
-5 -10 -11z"/>
<path d="M1326 1087 c3 -9 10 -17 15 -17 5 0 8 -5 7 -11 -2 -6 4 -14 12 -16
13 -4 13 -3 0 6 -13 9 -13 11 1 11 8 0 20 -5 27 -12 9 -9 12 -9 12 -1 0 7 -10
15 -22 19 -13 3 -31 13 -41 22 -16 15 -17 14 -11 -1z"/>
<path d="M1350 1096 c0 -2 7 -7 16 -10 8 -3 12 -2 9 4 -6 10 -25 14 -25 6z"/>
<path d="M1697 1089 c7 -7 15 -10 18 -7 3 3 -2 9 -12 12 -14 6 -15 5 -6 -5z"/>
<path d="M1525 1080 c-3 -5 -2 -10 4 -10 5 0 13 5 16 10 3 6 2 10 -4 10 -5 0
-13 -4 -16 -10z"/>
<path d="M2520 1066 c0 -2 7 -7 16 -10 8 -3 12 -2 9 4 -6 10 -25 14 -25 6z"/>
<path d="M1536 1051 c-4 -5 3 -7 14 -4 23 6 26 13 6 13 -8 0 -17 -4 -20 -9z"/>
<path d="M2048 1053 c6 -2 18 -2 25 0 6 3 1 5 -13 5 -14 0 -19 -2 -12 -5z"/>
<path d="M1458 1043 c7 -3 16 -2 19 1 4 3 -2 6 -13 5 -11 0 -14 -3 -6 -6z"/>
<path d="M2265 1040 c3 -5 8 -10 11 -10 2 0 4 5 4 10 0 6 -5 10 -11 10 -5 0
-7 -4 -4 -10z"/>
<path d="M2320 1046 c0 -2 7 -7 16 -10 8 -3 12 -2 9 4 -6 10 -25 14 -25 6z"/>
<path d="M1488 1023 c7 -3 16 -2 19 1 4 3 -2 6 -13 5 -11 0 -14 -3 -6 -6z"/>
<path d="M2247 999 c4 -13 8 -18 11 -10 2 7 -1 18 -6 23 -8 8 -9 4 -5 -13z"/>
<path d="M2276 1007 c3 -10 9 -15 12 -12 3 3 0 11 -7 18 -10 9 -11 8 -5 -6z"/>
<path d="M2658 1013 c7 -3 16 -2 19 1 4 3 -2 6 -13 5 -11 0 -14 -3 -6 -6z"/>
<path d="M2978 1013 c7 -3 16 -2 19 1 4 3 -2 6 -13 5 -11 0 -14 -3 -6 -6z"/>
<path d="M2307 999 c7 -7 15 -10 18 -7 3 3 -2 9 -12 12 -14 6 -15 5 -6 -5z"/>
<path d="M2515 980 c10 -11 20 -20 23 -20 3 0 -3 9 -13 20 -10 11 -20 20 -23
20 -3 0 3 -9 13 -20z"/>
<path d="M3105 960 c3 -5 11 -10 16 -10 6 0 7 5 4 10 -3 6 -11 10 -16 10 -6 0
-7 -4 -4 -10z"/>
<path d="M3056 943 c-6 -14 -5 -15 5 -6 7 7 10 15 7 18 -3 3 -9 -2 -12 -12z"/>
<path d="M2330 946 c0 -2 7 -7 16 -10 8 -3 12 -2 9 4 -6 10 -25 14 -25 6z"/>
<path d="M3076 933 c-10 -24 -7 -35 7 -26 6 4 20 6 30 5 25 -5 21 11 -7 24
-20 9 -26 9 -30 -3z"/>
<path d="M2582 914 c10 -10 20 -16 22 -13 3 3 -5 11 -17 18 -21 13 -21 12 -5
-5z"/>
<path d="M2700 910 c8 -5 20 -10 25 -10 6 0 3 5 -5 10 -8 5 -19 10 -25 10 -5
0 -3 -5 5 -10z"/>
<path d="M2971 910 c-9 -5 -10 -10 -2 -14 6 -4 11 -3 11 3 0 6 7 8 15 5 8 -4
15 -4 15 -1 0 10 -27 15 -39 7z"/>
<path d="M2289 883 c-12 -16 -12 -17 1 -7 8 6 22 14 30 17 13 5 12 6 -1 6 -9
1 -23 -7 -30 -16z"/>
<path d="M2745 890 c3 -5 8 -10 11 -10 2 0 4 5 4 10 0 6 -5 10 -11 10 -5 0 -7
-4 -4 -10z"/>
<path d="M2926 885 c-9 -26 -7 -32 5 -12 6 10 9 21 6 23 -2 3 -7 -2 -11 -11z"/>
<path d="M2850 881 c0 -12 26 -81 33 -87 4 -4 7 7 7 25 0 18 4 40 9 50 9 15 6
18 -20 18 -16 0 -29 -3 -29 -6z"/>
<path d="M3020 874 c0 -8 5 -12 10 -9 6 4 8 11 5 16 -9 14 -15 11 -15 -7z"/>
<path d="M2775 869 c-4 -6 -5 -12 -2 -15 2 -3 7 2 10 11 7 17 1 20 -8 4z"/>
<path d="M2940 859 c0 -5 5 -7 10 -4 6 3 10 8 10 11 0 2 -4 4 -10 4 -5 0 -10
-5 -10 -11z"/>
<path d="M2931 824 c0 -11 3 -14 6 -6 3 7 2 16 -1 19 -3 4 -6 -2 -5 -13z"/>
<path d="M3076 825 c-3 -9 -6 -24 -5 -33 0 -9 5 -4 10 12 9 32 6 48 -5 21z"/>
<path d="M2762 810 c0 -14 2 -19 5 -12 2 6 2 18 0 25 -3 6 -5 1 -5 -13z"/>
<path d="M2911 799 c1 -19 5 -45 9 -59 6 -16 7 -6 3 30 -7 63 -13 80 -12 29z"/>
<path d="M2442 760 c0 -19 2 -27 5 -17 2 9 2 25 0 35 -3 9 -5 1 -5 -18z"/>
<path d="M3086 775 c-3 -9 -6 -22 -5 -28 0 -7 5 -1 10 12 5 13 8 26 5 28 -2 2
-6 -3 -10 -12z"/>
<path d="M3091 714 c0 -11 3 -14 6 -6 3 7 2 16 -1 19 -3 4 -6 -2 -5 -13z"/>
</g>
</svg>
